<?xml version="1.0" encoding="UTF-8"?>
<!DOCTYPE svg PUBLIC "-//W3C//DTD SVG 1.1//EN" "http://www.w3.org/Graphics/SVG/1.1/DTD/svg11.dtd">
<svg xmlns="http://www.w3.org/2000/svg" version="1.1" width="400px" height="400px" style="shape-rendering:geometricPrecision; text-rendering:geometricPrecision; image-rendering:optimizeQuality; fill-rule:evenodd; clip-rule:evenodd" xmlns:xlink="http://www.w3.org/1999/xlink">
<g><path style="opacity:0.994" fill="#000000" d="M 176.5,-0.5 C 191.833,-0.5 207.167,-0.5 222.5,-0.5C 309.876,14.1435 367.043,63.8102 394,148.5C 396.081,158.933 397.914,169.267 399.5,179.5C 399.5,193.167 399.5,206.833 399.5,220.5C 394.478,261.609 378.812,297.943 352.5,329.5C 345.167,337.5 337.5,345.167 329.5,352.5C 297.943,378.812 261.609,394.478 220.5,399.5C 206.833,399.5 193.167,399.5 179.5,399.5C 94.7896,387.301 37.6229,340.968 8,260.5C 4.61571,247.815 1.78238,235.148 -0.5,222.5C -0.5,207.167 -0.5,191.833 -0.5,176.5C 5.21055,135.76 21.2105,99.7603 47.5,68.5C 54.1667,61.1667 61.1667,54.1667 68.5,47.5C 99.7603,21.2105 135.76,5.21055 176.5,-0.5 Z"/></g>
<g><path style="opacity:0.004" fill="#000000" d="M 68.5,47.5 C 67.8333,46.1667 67.8333,46.1667 68.5,47.5 Z"/></g>
<g><path style="opacity:0.004" fill="#000000" d="M 47.5,68.5 C 46.8333,67.1667 46.8333,67.1667 47.5,68.5 Z"/></g>
<g><path style="opacity:1" fill="#fbfbfb" d="M 319.5,78.5 C 326.119,86.6026 328.285,95.9359 326,106.5C 321.359,119.805 312.192,128.305 298.5,132C 293.246,133.647 287.913,134.98 282.5,136C 261.576,138.697 240.576,140.697 219.5,142C 222.628,143.788 223.961,146.455 223.5,150C 220.778,164.497 218.112,178.997 215.5,193.5C 230.691,190.83 244.858,185.496 258,177.5C 257.788,183.351 256.455,189.018 254,194.5C 252.167,197.667 249.667,200.167 246.5,202C 234.914,205.342 223.247,208.175 211.5,210.5C 206.287,234.725 200.121,258.725 193,282.5C 187.592,300.843 176.426,314.343 159.5,323C 150.097,326.246 140.43,327.246 130.5,326C 122.099,323.932 116.599,318.766 114,310.5C 111.604,291.751 115.937,274.751 127,259.5C 128.049,258.483 129.216,258.316 130.5,259C 135.703,262.87 139.37,267.87 141.5,274C 138.001,284.498 134.501,294.998 131,305.5C 130.674,320.258 136.841,323.425 149.5,315C 152.361,312.106 154.861,308.939 157,305.5C 161.736,295.56 165.403,285.227 168,274.5C 172.924,253.64 177.757,232.807 182.5,212C 178.167,211.667 173.833,211.333 169.5,211C 169,210.5 168.5,210 168,209.5C 167.502,206.518 167.335,203.518 167.5,200.5C 173.642,200.483 179.475,199.483 185,197.5C 188.824,179.542 192.324,161.542 195.5,143.5C 173.688,144.08 153.022,149.247 133.5,159C 108.978,174.354 96.3116,196.687 95.5,226C 96.3503,234.268 97.6836,242.435 99.5,250.5C 82.9852,249.825 72.4852,241.492 68,225.5C 64.3671,198.594 73.5337,177.094 95.5,161C 113.571,149.073 133.238,140.407 154.5,135C 189.374,127.798 224.374,121.132 259.5,115C 277.361,112.054 293.361,105.054 307.5,94C 312.098,89.2431 316.098,84.0764 319.5,78.5 Z"/></g>
<g><path style="opacity:0.004" fill="#000000" d="M 352.5,329.5 C 353.833,330.167 353.833,330.167 352.5,329.5 Z"/></g>
<g><path style="opacity:0.004" fill="#000000" d="M 329.5,352.5 C 330.833,353.167 330.833,353.167 329.5,352.5 Z"/></g>
</svg>
